<?xml version="1.0" encoding="UTF-8" standalone="no"?>

<svg
   width="1000"
   height="1000.0001"
   viewBox="0 0 264.58334 264.58335"
   version="1.1"
   id="svg1"
   xmlns="http://www.w3.org/2000/svg"
   xmlns:svg="http://www.w3.org/2000/svg">
   <defs
      id="defs1" />
   <g
      id="layer1">
      <g
         id="g10"
         transform="matrix(1.3743661,0,0,1.3743661,-36.070839,-38.140426)">
         <path
            d="m 124.38157,52.732479 a 69.304642,69.304642 0 0 0 -69.30468,69.304681 69.304642,69.304642 0 0 0 69.30468,69.30467 69.304642,69.304642 0 0 0 60.01968,-34.65233 l -13.33791,-7.70052 a 53.903618,53.903618 0 0 1 -46.68177,26.95181 53.903618,53.903618 0 0 1 -53.90364,-53.90363 53.903618,53.903618 0 0 1 53.90364,-53.903642 53.903618,53.903618 0 0 1 46.68214,26.951819 l 13.33754,-7.700519 A 69.304642,69.304642 0 0 0 124.38157,52.732479 Z"
            style="fill:#ededed;fill-opacity:1;stroke-width:6.93026"
            id="path43" />
         <path
            d="m 164.39457,145.13872 -20.00631,-11.55078 a 23.101543,23.101543 0 0 1 -20.00669,11.55078 23.101543,23.101543 0 0 1 -23.10156,-23.10156 23.101543,23.101543 0 0 1 23.10156,-23.101563 23.101543,23.101543 0 0 1 20.00669,11.550783 l 20.00631,-11.550783 a 46.203087,46.203087 0 0 0 -40.013,-23.101559 46.203087,46.203087 0 0 0 -46.203121,46.203122 46.203087,46.203087 0 0 0 46.203121,46.20312 46.203087,46.203087 0 0 0 40.013,-23.10156 z"
            style="fill:#ededed;fill-opacity:1;stroke-width:4.62018"
            id="path42" />
         <path
            d="m 137.71911,129.73768 -13.33754,-7.70052 13.33754,-7.70052 a 15.401046,15.401046 0 0 0 -13.33754,-7.70052 15.401046,15.401046 0 0 0 -15.40104,15.40104 15.401046,15.401046 0 0 0 15.40104,15.40104 15.401046,15.401046 0 0 0 13.33754,-7.70052 z"
            style="fill:#ededed;fill-opacity:1;stroke-width:1.54007"
            id="path44" />
         <path
            d="m 171.06334,148.98898 a 53.903618,53.903618 0 0 0 7.22187,-26.95182 53.903618,53.903618 0 0 0 -7.2215,-26.951823 l -6.66914,3.85026 a 46.203087,46.203087 0 0 1 6.19012,23.101563 46.203087,46.203087 0 0 1 -6.19012,23.10156 z"
            style="fill:#0062ff;fill-opacity:1;stroke-width:7.70027"
            id="path46" />
         <path
            d="m 144.38826,133.58794 a 23.101543,23.101543 0 0 0 3.09487,-11.55078 23.101543,23.101543 0 0 0 -3.09487,-11.55078 l -6.66915,3.85026 a 15.401046,15.401046 0 0 1 2.0635,7.70052 15.401046,15.401046 0 0 1 -2.0635,7.70052 z"
            style="fill:#ff6f00;fill-opacity:1;stroke-width:7.70027"
            id="path45" />
      </g>
   </g>
</svg>